<svg width="1600" height="900" viewBox="0 0 1600 900" xmlns="http://www.w3.org/2000/svg">
<title>Lozen Advisory's Name Standard - curved bridge over the governance chasm</title>
<desc>A flat illustration of a white curved arch bridge spanning a canyon labeled the governance chasm, with five colored hangers representing the five pillars of the Name Standard.</desc>

<rect x="0" y="0" width="1600" height="900" fill="#FFFFFF"/>

<text x="800" y="55" text-anchor="middle" font-family="Helvetica, Arial, sans-serif" font-size="17" fill="#8A8A8A">Lozen Advisory</text>
<text x="800" y="135" text-anchor="middle" font-family="Helvetica, Arial, sans-serif" font-size="54" font-weight="700" fill="#222222">The Name Standard&#8480;</text>
<text x="800" y="178" text-anchor="middle" font-family="Helvetica, Arial, sans-serif" font-size="21" fill="#555555">Five pillars bridge the governance chasm</text>

<rect x="0" y="420" width="260" height="480" fill="#E7E3D8" stroke="#C9C4B8" stroke-width="1"/>
<rect x="1340" y="420" width="260" height="480" fill="#E7E3D8" stroke="#C9C4B8" stroke-width="1"/>
<rect x="260" y="420" width="1080" height="230" fill="#EEF1F2"/>
<rect x="260" y="720" width="1080" height="180" fill="#B5B5B5"/>
<rect x="290" y="650" width="1020" height="70" fill="#A9BAC2"/>
<path d="M320,670 q40,-5 80,0 t80,0 t80,0 t80,0 t80,0 t80,0 t80,0 t80,0 t80,0 t80,0 t80,0" fill="none" stroke="#C7D6DB" stroke-width="3"/>
<path d="M300,696 q40,5 80,0 t80,0 t80,0 t80,0 t80,0 t80,0 t80,0 t80,0 t80,0 t80,0 t80,0" fill="none" stroke="#8FA3AC" stroke-width="3"/>
<text x="800" y="693" text-anchor="middle" font-family="Helvetica, Arial, sans-serif" font-size="21" font-weight="500" letter-spacing="3" fill="#FFFFFF">GOVERNANCE CHASM</text>

<path d="M260,420 Q800,0 1340,420" fill="none" stroke="#AFAFAF" stroke-width="16" stroke-linecap="round"/>
<rect x="240" y="414" width="1120" height="14" rx="3" fill="#F2F2F2" stroke="#B0B0B0" stroke-width="1.5"/>

<line x1="390" y1="331" x2="390" y2="414" stroke="#0B91A7" stroke-width="14"/>
<line x1="595" y1="240" x2="595" y2="414" stroke="#AAAEFE" stroke-width="14"/>
<line x1="800" y1="210" x2="800" y2="414" stroke="#F8D600" stroke-width="14"/>
<line x1="1005" y1="240" x2="1005" y2="414" stroke="#066472" stroke-width="14"/>
<line x1="1210" y1="331" x2="1210" y2="414" stroke="#6F71A5" stroke-width="14"/>

<line x1="390" y1="426" x2="390" y2="460" stroke="#0B91A7" stroke-width="14"/>
<line x1="595" y1="426" x2="595" y2="460" stroke="#AAAEFE" stroke-width="14"/>
<line x1="800" y1="426" x2="800" y2="460" stroke="#F8D600" stroke-width="14"/>
<line x1="1005" y1="426" x2="1005" y2="460" stroke="#066472" stroke-width="14"/>
<line x1="1210" y1="426" x2="1210" y2="460" stroke="#6F71A5" stroke-width="14"/>

<rect x="345" y="460" width="90" height="140" fill="#FFFFFF" stroke="#B0B0B0" stroke-width="1.5"/>
<text x="390" y="502" text-anchor="middle" font-family="Helvetica, Arial, sans-serif" font-size="32" font-weight="700" fill="#222222">1</text>
<text x="390" y="532" text-anchor="middle" font-family="Helvetica, Arial, sans-serif" font-size="14" fill="#333333">Time</text>
<text x="390" y="552" text-anchor="middle" font-family="Helvetica, Arial, sans-serif" font-size="14" fill="#333333">allocation</text>

<rect x="550" y="460" width="90" height="140" fill="#FFFFFF" stroke="#B0B0B0" stroke-width="1.5"/>
<text x="595" y="502" text-anchor="middle" font-family="Helvetica, Arial, sans-serif" font-size="32" font-weight="700" fill="#222222">2</text>
<text x="595" y="532" text-anchor="middle" font-family="Helvetica, Arial, sans-serif" font-size="14" fill="#333333">Review</text>
<text x="595" y="552" text-anchor="middle" font-family="Helvetica, Arial, sans-serif" font-size="14" fill="#333333">capacity</text>
<text x="595" y="572" text-anchor="middle" font-family="Helvetica, Arial, sans-serif" font-size="14" fill="#333333">&amp; tools</text>

<rect x="755" y="460" width="90" height="140" fill="#FFFFFF" stroke="#B0B0B0" stroke-width="1.5"/>
<text x="800" y="502" text-anchor="middle" font-family="Helvetica, Arial, sans-serif" font-size="32" font-weight="700" fill="#222222">3</text>
<text x="800" y="532" text-anchor="middle" font-family="Helvetica, Arial, sans-serif" font-size="14" fill="#333333">Information</text>
<text x="800" y="552" text-anchor="middle" font-family="Helvetica, Arial, sans-serif" font-size="14" fill="#333333">access</text>

<rect x="915" y="460" width="90" height="140" fill="#FFFFFF" stroke="#B0B0B0" stroke-width="1.5"/>
<text x="960" y="502" text-anchor="middle" font-family="Helvetica, Arial, sans-serif" font-size="32" font-weight="700" fill="#222222">4</text>
<text x="960" y="532" text-anchor="middle" font-family="Helvetica, Arial, sans-serif" font-size="13" fill="#333333">Documentation</text>
<text x="960" y="552" text-anchor="middle" font-family="Helvetica, Arial, sans-serif" font-size="13" fill="#333333">infrastructure</text>

<rect x="1165" y="460" width="90" height="140" fill="#FFFFFF" stroke="#B0B0B0" stroke-width="1.5"/>
<text x="1210" y="502" text-anchor="middle" font-family="Helvetica, Arial, sans-serif" font-size="32" font-weight="700" fill="#222222">5</text>
<text x="1210" y="532" text-anchor="middle" font-family="Helvetica, Arial, sans-serif" font-size="14" fill="#333333">Formal</text>
<text x="1210" y="552" text-anchor="middle" font-family="Helvetica, Arial, sans-serif" font-size="14" fill="#333333">right of</text>
<text x="1210" y="572" text-anchor="middle" font-family="Helvetica, Arial, sans-serif" font-size="14" fill="#333333">refusal</text>

</svg>
